<svg width="180" height="36" viewBox="0 0 180 36" fill="none" xmlns="http://www.w3.org/2000/svg">
<path d="M26.2873 6.14453H31.2531V30.2095H25.7143V18.177L20.1755 30.2095H16.7377L11.1989 18.177V30.2095H5.66016V6.14453H10.6259L18.4566 23.1428L26.2873 6.14453Z" fill="white"/>
<path d="M39.59 30.2109H34.4332V12.6397H39.59V30.2109ZM34.2422 7.86488C34.2422 7.10091 34.5223 6.43881 35.0826 5.87856C35.6683 5.29285 36.3431 5 37.1071 5C37.871 5 38.5331 5.29285 39.0934 5.87856C39.6791 6.43881 39.9719 7.10091 39.9719 7.86488C39.9719 8.62885 39.6791 9.30369 39.0934 9.88939C38.5331 10.4496 37.871 10.7298 37.1071 10.7298C36.3431 10.7298 35.6683 10.4496 35.0826 9.88939C34.5223 9.30369 34.2422 8.62885 34.2422 7.86488Z" fill="white"/>
<path d="M48.1177 30.2095H42.9609V6.14453H48.1177V30.2095Z" fill="white"/>
<path d="M58.1722 30.2115C57.1281 30.2115 56.1731 30.0459 55.3073 29.7149C54.4415 29.3584 53.6902 28.8618 53.0536 28.2252C52.4424 27.563 51.9586 26.7736 51.6021 25.8569C51.271 24.9401 51.1055 23.9087 51.1055 22.7628V12.4492H56.2623V21.8078C56.2623 22.9538 56.5551 23.8451 57.1408 24.4817C57.752 25.1184 58.5414 25.4367 59.5091 25.4367C60.4768 25.4367 61.2535 25.1184 61.8392 24.4817C62.4504 23.8451 62.756 22.9538 62.756 21.8078V12.4492H67.9128V30.0205H64.0929L63.329 28.3015C62.896 28.6581 62.4122 28.9764 61.8774 29.2565C61.419 29.5112 60.8715 29.7404 60.2349 29.9441C59.6237 30.1223 58.9361 30.2115 58.1722 30.2115Z" fill="white"/>
<path d="M82.6738 19.8125L84.4375 18.0479L85.7773 19.3896L84.0137 21.1543L85.7686 22.9111L84.4287 24.2529L82.6738 22.4961L80.9189 24.2539L79.5791 22.9121L81.334 21.1543L79.5703 19.3887L80.9111 18.0469L82.6738 19.8125Z" fill="white"/>
<path d="M157.773 12.8555H165.682V25.211H163.406V20.9254H160.059V25.211H157.773V12.8555ZM160.059 15.0419V18.8842H163.406V15.0419H160.059Z" fill="white"/>
<path d="M105.273 12.8789V25.2345H107.653V21.3329L111.504 25.2463L113.196 25.2345V23.7292L109.896 20.5711H113.196V12.8789H105.275H105.273ZM107.653 18.8259V15.0653H110.854V18.8259H107.653Z" fill="white"/>
<path d="M138.715 12.8555H145.434V15.0419H141.096V18.1579H145.434V20.2292H141.096V23.4314H145.434V25.2046H138.715V12.8555Z" fill="white"/>
<path d="M155.483 12.8555H152.811H150.433H147.758V15.0419H150.433L150.431 25.2046H152.811V15.0419H155.483V12.8555Z" fill="white"/>
<path d="M116.613 12.8555H124.522V25.211H122.246V20.9254H118.898V25.211H116.613V12.8555ZM118.898 15.0419V18.8842H122.246V15.0419H118.898Z" fill="white"/>
<path d="M132.934 19.0874L135.606 16.3038V12.9102H133.226V15.5323L130.139 18.7291V12.9102H127.758V25.2657H130.139V19.3542L133.226 23.0298V25.2657H135.606V22.4789L132.934 19.0874Z" fill="white"/>
<path d="M102.536 30.2078H98.0501L98.0641 22.3337L94.7773 19.0391L98.0652 15.7444L98.0501 7.87891H102.536L102.548 10.117L100.198 10.1213L100.287 16.8634L97.9788 19.038L100.287 21.2169L100.273 27.9461L102.547 27.9504L102.535 30.2057L102.536 30.2078Z" fill="#0F5BFF"/>
<path d="M168.411 27.9543L170.686 27.95L170.672 21.2208L172.979 19.0419L170.672 16.8673L170.76 10.1252L168.41 10.1209L168.422 7.88281H172.908L172.894 15.7483L176.182 19.043L172.894 22.3376L172.908 30.2117H168.422L168.41 27.9564L168.411 27.9543Z" fill="#0F5BFF"/>
</svg>
