<svg width="400" height="1080" viewBox="0 0 400 1080" fill="none" xmlns="http://www.w3.org/2000/svg">
<g clip-path="url(#clip0_4820_51331)">
<rect width="400" height="1080" fill="#000001"/>
<g filter="url(#filter0_n_4820_51331)">
<circle cx="210.5" cy="1099" r="611" fill="url(#paint0_radial_4820_51331)" fill-opacity="0.7"/>
</g>
<g clip-path="url(#clip1_4820_51331)">
<path d="M467.235 1103C481.14 1081.68 491.841 1061.04 490.929 1032.82C489.261 993.05 452.286 952.369 415.985 978.404C356.758 1022.64 297.871 1036.73 224.078 1035.55C201.315 1036.51 183.831 1081.16 285.643 1099.47C303.086 1104.23 411.77 1182.98 467.267 1102.99L467.235 1103Z" stroke="#135BF8" stroke-width="0.749027" stroke-miterlimit="10"/>
<path d="M413.506 966.37C358.689 996.61 370.777 987.794 304.334 986.682C250.476 985.792 257.829 1012.01 226.339 1023.95C209.091 1030.49 183.931 1028.49 164.12 1033.61C142.963 1039.08 142.669 1073.86 183.455 1103.09C197.362 1113.05 220.446 1122.22 244.465 1131.57C260.183 1137.69 281.801 1136.91 302.384 1145.75C329.735 1157.53 352.704 1213.27 432.216 1193.02C474.194 1182.33 508.259 1149.2 498.46 1107C489.507 1068.43 509.539 1061.47 509.934 1033.52C510.409 999.919 462.226 939.442 413.467 966.345L413.506 966.37Z" stroke="#135BF8" stroke-width="0.749027" stroke-miterlimit="10"/>
<path d="M372.305 973.21C335.734 983.652 305.263 961.29 269.152 953.822C250.213 949.903 227.144 950.859 216.226 963.232C204.159 976.894 208.268 1000.38 185.016 1013.73C164.55 1025.46 128.777 1021.37 104.225 1031.75C77.4627 1043.03 86.3473 1111.03 203.403 1163.75C229.215 1175.37 258.75 1164.41 281.47 1173.54C313.951 1186.57 325.63 1280.24 443.403 1250.03C499.589 1235.63 549.194 1191.12 517.156 1132.69C488.262 1079.96 527.334 1075.23 529.048 1034.34C529.827 1015.86 519.325 998.617 506.605 987.303C451.472 928.409 428.794 944.814 372.299 973.262L372.305 973.21Z" stroke="#135BF8" stroke-width="0.749027" stroke-miterlimit="10"/>
<path d="M359.69 964.224C314.347 973.776 278.231 935.331 233.958 920.947C210.324 913.268 180.394 913.015 169.199 930.905C157.717 949.278 171.165 983.913 143.661 1003.48C119.931 1020.34 73.5317 1014.1 44.2901 1029.82C16.4557 1044.85 37.3973 1106.13 80.8158 1140.48C100.538 1156.08 133.056 1181.51 162.249 1195.86C197.959 1213.4 235.64 1191.84 260.477 1201.23C297.834 1215.35 300.023 1346.76 454.525 1306.94C522.446 1289.44 590.87 1233.89 535.787 1158.27C487.094 1091.43 544.901 1088.28 548.09 1035.03C549.371 1013.55 535.785 994.018 519.896 982.341C454.641 919.107 435.652 927.974 359.67 964.211L359.69 964.224Z" stroke="#135BF8" stroke-width="0.749027" stroke-miterlimit="10"/>
<path d="M347.048 955.226C292.947 963.868 251.192 909.288 198.737 888.059C170.442 876.613 133.455 875.109 122.153 898.599C111.06 921.639 134.004 967.439 102.266 993.24C75.2329 1015.21 18.1678 1006.7 -15.6641 1027.92C-46.9558 1047.56 -14.5361 1121.16 29.463 1159.16C51.6 1178.29 89.2132 1211.32 121.107 1227.99C166.556 1251.74 212.549 1219.24 239.497 1228.94C281.951 1244.23 274.701 1413.22 465.647 1363.89C519.515 1349.95 586.708 1306.48 586.148 1253.97C585.894 1229.45 572.188 1204.92 554.417 1183.89C518.79 1141.74 516.318 1129.01 542.446 1090.84C553.797 1074.25 565.537 1057.75 567.138 1035.78C568.909 1011.33 552.252 989.484 533.194 977.443C456.52 907.962 439.405 912.801 347.035 955.245L347.048 955.226Z" stroke="#135BF8" stroke-width="0.749027" stroke-miterlimit="10"/>
<path d="M334.429 946.237C271.576 954.002 224.207 883.248 163.538 855.181C130.595 839.948 86.4352 837.201 75.1423 866.283C64.3616 894.023 96.8383 950.929 60.9397 982.981C30.603 1010.06 -37.1999 999.262 -75.5828 1026.01C-110.371 1050.24 -66.5754 1136.31 -21.8544 1177.83C2.64661 1200.57 45.341 1241.13 80.0211 1260.12C135.061 1290.27 189.513 1246.63 218.56 1256.67C254.075 1268.94 251.606 1369.67 325.157 1411.02C428.964 1469.38 621.375 1385.62 615.901 1291.72C614.223 1262.84 595.93 1234.17 573.09 1209.53C526.84 1159.61 523.306 1145.77 555.615 1100.91C569.546 1081.56 584.095 1062.42 586.209 1036.54C588.45 1009.1 568.755 984.939 546.515 972.555C458.276 896.452 442.536 897.942 334.416 946.256L334.429 946.237Z" stroke="#135BF8" stroke-width="0.749027" stroke-miterlimit="10"/>
<path d="M321.811 937.254C250.186 944.129 197.224 857.214 128.341 822.308C90.7613 803.269 39.3385 799.331 28.1326 833.972C17.6188 866.439 59.674 934.425 19.5818 972.734C-14.0779 1004.91 -92.586 991.819 -135.501 1024.1C-173.773 1052.9 -118.717 1151.54 -73.1706 1196.5C-46.3891 1222.93 1.45035 1270.93 38.9291 1292.22C103.49 1328.91 166.465 1273.97 197.629 1284.35C237.156 1297.54 230.528 1416.75 314.786 1465.87C432.359 1534.41 655.683 1436.04 645.661 1329.43C642.547 1296.2 619.679 1263.38 591.751 1235.11C534.872 1177.48 530.249 1162.48 568.785 1110.89C585.296 1088.79 602.641 1067.04 605.3 1037.24C608.011 1006.81 585.245 980.336 559.869 967.582C461.299 885.745 446.874 882.48 321.837 937.214L321.811 937.254Z" stroke="#135BF8" stroke-width="0.749027" stroke-miterlimit="10"/>
<path d="M309.193 928.269C228.809 934.235 170.252 831.158 93.1303 789.454C50.9143 766.608 -7.81683 761.506 -18.9231 801.686C-29.2152 838.906 22.4638 917.945 -21.8025 962.525C-58.8174 999.798 -148.038 984.387 -195.464 1022.21C-237.272 1055.58 -170.994 1166.85 -124.533 1215.2C-95.5484 1245.36 -42.5186 1300.76 -2.22163 1324.36C71.7639 1367.71 143.39 1301.34 176.64 1312.08C220.171 1326.15 209.391 1463.88 304.363 1520.8C435.605 1599.46 689.909 1486.63 675.37 1367.21C670.798 1329.63 643.363 1292.68 610.379 1260.78C542.878 1195.46 537.173 1179.26 581.909 1120.99C601.001 1096.13 621.142 1071.76 624.346 1038.04C627.527 1004.62 601.709 975.854 573.164 962.737C463.367 874.274 449.915 867.678 309.212 928.281L309.193 928.269Z" stroke="#135BF8" stroke-width="0.749027" stroke-miterlimit="10"/>
<path d="M296.565 919.248C207.409 924.324 143.291 805.079 57.9233 756.544C11.0585 729.912 -54.9683 723.626 -65.9425 769.338C-76.0128 811.311 -14.7298 901.391 -63.1701 952.242C-103.508 994.608 -203.505 976.888 -255.404 1020.29C-326.463 1079.71 -127.321 1306.05 -43.3813 1356.47C39.978 1406.55 120.273 1328.69 155.629 1339.79C203.196 1354.74 188.246 1510.97 293.912 1575.68C438.875 1664.46 724.087 1537.24 705.063 1404.93C699.041 1363.02 667.05 1321.93 629.004 1286.36C550.881 1213.36 544.094 1195.95 595.023 1130.97C616.676 1103.34 639.613 1076.35 643.363 1038.72C646.995 1002.29 618.144 971.24 586.45 957.772C465.927 862.984 453.262 852.655 296.545 919.235L296.565 919.248Z" stroke="#135BF8" stroke-width="0.749027" stroke-miterlimit="10"/>
<path d="M283.945 910.263C186.03 914.429 116.351 779.016 22.724 723.669C-28.7573 693.244 -102.145 685.787 -112.967 737.045C-122.861 783.797 -51.9286 884.892 -104.523 942.025C-148.217 989.493 -258.978 969.444 -315.337 1018.4C-389.672 1082.97 -172.582 1334.56 -84.5011 1388.61C8.16119 1445.48 97.2296 1356.05 134.67 1367.52C186.255 1383.32 167.153 1558.07 283.533 1630.58C442.268 1729.48 758.323 1587.81 734.815 1442.69C727.324 1396.44 690.798 1351.22 647.656 1311.99C558.918 1231.34 550.899 1212.57 608.172 1141.03C632.359 1110.58 658.118 1081.02 662.433 1039.48C666.535 1000.07 634.633 966.719 599.77 952.888C467.829 851.21 456.049 837.94 283.945 910.263Z" stroke="#135BF8" stroke-width="0.749027" stroke-miterlimit="10"/>
<path d="M271.322 901.278C164.636 904.555 89.523 752.777 -12.4777 690.795C-68.5184 656.446 -149.316 647.982 -160.001 704.72C-169.698 756.264 -89.1493 868.38 -145.873 931.758C-192.909 984.307 -314.447 961.948 -375.246 1016.47C-452.725 1085.94 -218.668 1362.54 -125.61 1420.73C-23.6637 1484.46 74.1766 1383.39 113.722 1395.22C169.324 1411.88 146.084 1605.13 273.133 1685.46C445.823 1794.65 792.491 1638.23 764.558 1480.41C755.617 1429.84 714.555 1380.49 666.318 1337.6C566.965 1249.3 557.884 1229.33 621.33 1151.07C648.098 1117.86 676.633 1085.67 681.513 1040.23C686.066 997.814 651.132 962.179 613.1 947.984C469.302 839.019 458.162 823.485 271.342 901.291L271.322 901.278Z" stroke="#135BF8" stroke-width="0.749027" stroke-miterlimit="10"/>
<path d="M258.703 892.291C143.245 894.678 62.5449 726.771 -47.6764 657.918C-108.359 619.815 -196.505 610.161 -207.012 672.405C-216.513 728.742 -126.452 851.782 -187.232 921.508C-237.689 979.087 -369.925 954.469 -435.178 1014.57C-515.737 1088.77 -265.279 1390.26 -166.729 1452.86C-55.5435 1523.49 51.1266 1410.72 92.7521 1422.96C152.383 1440.46 125.152 1652.03 262.722 1740.37C449.435 1859.42 826.691 1688.94 794.279 1518.18C783.856 1463.28 738.271 1409.78 684.959 1363.25C574.991 1267.3 564.839 1246.1 634.48 1161.12C663.847 1125.17 695.035 1090.33 700.564 1040.98C705.483 995.565 667.602 957.644 626.401 943.085C471.628 827.492 461.195 808.649 258.703 892.291Z" stroke="#135BF8" stroke-width="0.749027" stroke-miterlimit="10"/>
<path d="M246.083 883.306C121.866 884.784 35.5534 700.788 -82.8757 625.044C-148.207 583.155 -243.706 572.363 -254.036 640.113C-263.354 701.261 -163.612 835.309 -228.585 911.292C-282.358 973.998 -425.417 947.013 -495.111 1012.68C-579.869 1092.55 -308.254 1420.32 -207.849 1485C-87.4495 1562.56 28.0888 1438.04 71.7939 1450.68C135.473 1468.95 104.009 1699.21 252.344 1795.27C452.766 1924.64 860.61 1739.53 824.044 1555.92C812.074 1496.72 761.967 1439.15 703.624 1388.86C582.906 1285.42 571.84 1262.84 647.621 1171.15C679.569 1132.44 713.566 1094.96 719.628 1041.72C725.049 993.303 684.077 953.059 639.727 938.15C473.038 815.23 463.503 794.069 246.096 883.287L246.083 883.306Z" stroke="#135BF8" stroke-width="0.749027" stroke-miterlimit="10"/>
<path d="M-118.071 592.167C-188.045 546.523 -290.904 534.561 -301.044 607.797C-310.179 673.757 -200.748 818.846 -269.941 901.041C-365.916 1015.09 -784.841 871.811 -432.551 1327.25C-391.387 1380.47 -306.372 1479.66 -248.971 1517.11C-119.404 1601.62 5.00989 1465.37 50.8201 1478.39C118.511 1497.57 82.856 1746.4 241.917 1850.16C455.578 1989.53 895.073 1790.27 853.749 1593.67C840.393 1530.13 785.751 1468.34 722.248 1414.49C591.069 1303.26 578.779 1279.6 660.754 1181.19C695.283 1139.73 732.108 1099.62 738.682 1042.47C744.593 991.077 700.55 948.522 653.031 933.25C474.361 802.934 465.777 779.544 233.48 874.299C100.492 874.886 8.61102 674.774 -118.039 592.16L-118.071 592.167Z" stroke="#135BF8" stroke-width="0.749027" stroke-miterlimit="10"/>
<path d="M260.926 787.058L257.162 787.569L256.653 791.343L256.142 787.569L252.379 787.058L256.142 786.547L256.653 782.773L257.162 786.547L260.926 787.058Z" fill="white"/>
<path d="M303.856 704.056C304.159 704.49 304.755 704.597 305.188 704.295C305.621 703.993 305.727 703.396 305.424 702.962C305.121 702.528 304.524 702.421 304.091 702.723C303.658 703.025 303.553 703.622 303.856 704.056Z" fill="white"/>
<path d="M164.641 764.525C164.944 764.959 165.541 765.066 165.974 764.763C166.406 764.461 166.512 763.865 166.209 763.43C165.906 762.996 165.309 762.889 164.876 763.192C164.443 763.494 164.338 764.091 164.641 764.525Z" fill="white"/>
<path d="M24.6412 604.525C24.9441 604.959 25.5407 605.066 25.9735 604.763C26.4064 604.461 26.5117 603.865 26.2087 603.43C25.9058 602.996 25.3092 602.889 24.8764 603.192C24.4435 603.494 24.3382 604.091 24.6412 604.525Z" fill="white"/>
<path d="M153.356 650L154.593 659.098L163.714 660.33L154.593 661.563L153.356 670.66L152.121 661.563L143 660.33L152.121 659.098L153.356 650Z" fill="white"/>
</g>
<path d="M290.547 480.548C290.85 480.982 291.447 481.089 291.88 480.787C292.313 480.485 292.418 479.888 292.115 479.454C291.812 479.02 291.215 478.913 290.783 479.215C290.35 479.517 290.244 480.114 290.547 480.548Z" fill="white"/>
<path d="M328.547 549.999L324.783 550.511L324.274 554.284L323.763 550.511L320 549.999L323.763 549.488L324.274 545.715L324.783 549.488L328.547 549.999Z" fill="white"/>
</g>
<defs>
<filter id="filter0_n_4820_51331" x="-400.5" y="488" width="1222" height="1222" filterUnits="userSpaceOnUse" color-interpolation-filters="sRGB">
<feFlood flood-opacity="0" result="BackgroundImageFix"/>
<feBlend mode="normal" in="SourceGraphic" in2="BackgroundImageFix" result="shape"/>
<feTurbulence type="fractalNoise" baseFrequency="1 1" stitchTiles="stitch" numOctaves="3" result="noise" seed="2109" />
<feColorMatrix in="noise" type="luminanceToAlpha" result="alphaNoise" />
<feComponentTransfer in="alphaNoise" result="coloredNoise1">
<feFuncA type="discrete" tableValues="1 1 1 1 1 1 1 1 1 1 1 1 1 1 1 1 1 1 1 1 1 1 1 1 1 1 1 1 1 1 1 1 1 1 1 1 1 1 1 1 1 1 1 1 1 1 1 1 1 1 1 0 0 0 0 0 0 0 0 0 0 0 0 0 0 0 0 0 0 0 0 0 0 0 0 0 0 0 0 0 0 0 0 0 0 0 0 0 0 0 0 0 0 0 0 0 0 0 0 0 "/>
</feComponentTransfer>
<feComposite operator="in" in2="shape" in="coloredNoise1" result="noise1Clipped" />
<feFlood flood-color="rgba(0, 0, 0, 0.25)" result="color1Flood" />
<feComposite operator="in" in2="noise1Clipped" in="color1Flood" result="color1" />
<feMerge result="effect1_noise_4820_51331">
<feMergeNode in="shape" />
<feMergeNode in="color1" />
</feMerge>
</filter>
<radialGradient id="paint0_radial_4820_51331" cx="0" cy="0" r="1" gradientUnits="userSpaceOnUse" gradientTransform="translate(210.5 1099) rotate(90) scale(611)">
<stop stop-color="#0534FE"/>
<stop offset="0.223958" stop-color="#062FDB" stop-opacity="0.990035"/>
<stop offset="0.578125" stop-color="#0A228B" stop-opacity="0.966992"/>
<stop offset="1"/>
</radialGradient>
<clipPath id="clip0_4820_51331">
<rect width="400" height="1080" fill="white"/>
</clipPath>
<clipPath id="clip1_4820_51331">
<rect width="1557.13" height="1003.03" fill="white" transform="translate(-168 388) rotate(33.1165)"/>
</clipPath>
</defs>
</svg>
